<svg width="24" height="24" viewBox="0 0 24 24" fill="none" xmlns="http://www.w3.org/2000/svg">
<path fill-rule="evenodd" clip-rule="evenodd" d="M6.85565 7.12195H5.55408C5.12049 7.12197 4.703 7.29376 4.38569 7.60272C4.06838 7.91169 3.87482 8.33489 3.84397 8.7871L3.00434 21.0798C2.9876 21.3253 3.01939 21.5718 3.09774 21.8039C3.17609 22.0361 3.29933 22.2488 3.45977 22.429C3.6202 22.6091 3.8144 22.7528 4.03027 22.851C4.24613 22.9493 4.47903 23 4.71446 23H18.2856C18.521 22.9998 18.7538 22.949 18.9696 22.8507C19.1854 22.7525 19.3796 22.6088 19.54 22.4287C19.7004 22.2485 19.8236 22.0358 19.902 21.8038C19.9804 21.5717 20.0123 21.3253 19.9957 21.0798L19.1561 8.7871C19.1253 8.33489 18.9317 7.91169 18.6144 7.60272C18.2971 7.29376 17.8796 7.12197 17.446 7.12195H16.1537V6.86585C16.1537 5.57535 15.6634 4.3377 14.7907 3.42518C13.918 2.51265 12.7343 2 11.5 2C9.02378 2 6.73514 4.0621 6.84634 6.86585L6.85565 7.12195ZM16.1537 8.65854V12.5C16.1537 12.7038 16.0763 12.8992 15.9385 13.0433C15.8007 13.1873 15.6138 13.2683 15.4189 13.2683C15.2241 13.2683 15.0372 13.1873 14.8994 13.0433C14.7616 12.8992 14.6841 12.7038 14.6841 12.5V8.65854H8.31593V12.5C8.31593 12.7038 8.23851 12.8992 8.10071 13.0433C7.96291 13.1873 7.77601 13.2683 7.58113 13.2683C7.38625 13.2683 7.19936 13.1873 7.06155 13.0433C6.92375 12.8992 6.84634 12.7038 6.84634 12.5C6.84634 12.5 6.91002 10.7048 6.88896 8.65854H5.55408C5.49223 8.65863 5.43271 8.68318 5.38746 8.72726C5.34221 8.77134 5.31458 8.8317 5.31013 8.8962L4.47001 21.1889C4.46759 21.224 4.47211 21.2592 4.4833 21.2924C4.49449 21.3256 4.5121 21.3561 4.53504 21.3818C4.55798 21.4076 4.58575 21.4281 4.61662 21.4422C4.64749 21.4562 4.68079 21.4634 4.71446 21.4634H18.2856C18.3192 21.4633 18.3525 21.4559 18.3833 21.4419C18.4141 21.4278 18.4418 21.4072 18.4647 21.3815C18.4876 21.3558 18.5052 21.3254 18.5165 21.2923C18.5277 21.2591 18.5323 21.224 18.5301 21.1889L17.6899 8.8962C17.6855 8.8317 17.6579 8.77134 17.6126 8.72726C17.5674 8.68318 17.5078 8.65863 17.446 8.65854H16.1537ZM14.6841 7.12195V6.86585C14.6841 5.98288 14.3487 5.13606 13.7515 4.51171C13.1544 3.88735 12.3445 3.53659 11.5 3.53659C10.6556 3.53659 9.84567 3.88735 9.24853 4.51171C8.6514 5.13606 8.31593 5.98288 8.31593 6.86585V7.12195H14.6841Z" fill="#1F1F1F"/>
</svg>
