<svg width="9" height="10" viewBox="0 0 9 10" fill="none" xmlns="http://www.w3.org/2000/svg">
<path fill-rule="evenodd" clip-rule="evenodd" d="M8.78146 9.47999C8.4893 9.78446 8.00864 9.78446 7.71647 9.47999L4.49794 6.12581L1.28412 9.47999C0.99195 9.78446 0.51129 9.78446 0.219124 9.47999C-0.0730414 9.17551 -0.0730414 8.67459 0.219124 8.37011L3.43766 5.02084L0.219124 1.67158C-0.0730414 1.3671 -0.0730414 0.866181 0.219124 0.561703C0.51129 0.257224 0.99195 0.257224 1.28412 0.561703L4.49794 3.91097L7.71176 0.561703C8.00393 0.257224 8.48458 0.257224 8.77675 0.561703C9.06891 0.866181 9.06891 1.3671 8.77675 1.67158L5.56293 5.01593L8.77675 8.3652C9.07363 8.67459 9.07363 9.1706 8.78146 9.47999Z" fill="white"/>
</svg>