<svg width="140" height="20" viewBox="0 0 140 20" fill="none" xmlns="http://www.w3.org/2000/svg">
    <g clip-path="url(#clip0_1_46)">
        <path
            d="M139.697 0H124.226C124.063 0 123.923 0.172163 123.923 0.373024V19.34C123.923 19.5409 124.063 19.7131 124.226 19.7131H125.299C125.463 19.7131 125.603 19.5409 125.603 19.34V11.1621C125.603 11.0187 125.696 10.8752 125.836 10.8752H132.486C132.65 10.8752 132.79 10.703 132.79 10.5022V9.18221C132.79 8.98135 132.65 8.80918 132.486 8.80918H125.836C125.696 8.80918 125.603 8.6944 125.603 8.52223V2.32425C125.603 2.15208 125.696 2.03731 125.836 2.03731H139.697C139.86 2.03731 140 1.86513 140 1.66427V0.344328C140 0.172161 139.86 0 139.697 0ZM33.3622 19.6557C33.3856 19.7131 33.3856 19.7705 33.3856 19.8278C33.3622 19.9426 33.2922 20 33.1756 20H31.9388C31.7988 20 31.6355 19.9426 31.5888 19.8565C31.5655 19.7991 31.5188 19.6844 31.4721 19.5696L31.4255 19.4261L30.0954 16.1836H20.6217L19.2916 19.4261L19.1516 19.7991L19.1283 19.8565C19.0816 19.9426 18.9183 20 18.7783 20H17.5416C17.4249 20 17.3549 19.9426 17.3316 19.8278C17.3316 19.7705 17.3316 19.7131 17.3549 19.6557L17.4249 19.4548C17.4949 19.3113 17.5882 19.0818 17.6349 18.9383L24.8452 1.29125C24.8919 1.20517 24.9385 1.06169 24.9852 0.946912L25.0785 0.71736L25.1952 0.430416C25.2419 0.344333 25.2886 0.286944 25.3352 0.286944C25.3819 0.286944 25.4519 0.344333 25.4752 0.430416L25.5919 0.71736L25.8252 1.29125L33.0355 18.9383C33.0822 19.0244 33.1289 19.1679 33.1989 19.3113L33.2922 19.5122L33.3622 19.6557ZM25.4286 4.87805C25.4052 4.82066 25.3819 4.79196 25.3586 4.79196C25.3352 4.79196 25.2886 4.82066 25.2652 4.87805L21.5084 14.089H29.1854L25.4286 4.87805ZM76.904 0.602584C76.9274 0.516501 76.9274 0.459109 76.8807 0.40172C76.8574 0.344331 76.7874 0.31564 76.7174 0.31564H75.504C75.364 0.31564 75.2006 0.373029 75.154 0.459112L74.9906 0.860832L69.087 15.2654C69.0637 15.3228 69.0404 15.3515 68.9937 15.3515C68.9704 15.3515 68.9237 15.3228 68.9004 15.2654L62.9968 0.860832C62.9501 0.746055 62.8801 0.573883 62.8335 0.4878L62.8101 0.459112C62.7634 0.373029 62.6234 0.31564 62.4601 0.31564H61.2467C61.1767 0.31564 61.1301 0.344329 61.1067 0.373024C61.0834 0.430413 61.06 0.487803 61.06 0.545192C61.06 0.545192 61.0367 0.57389 61.0367 0.602584V19.3687C61.0367 19.5696 61.1767 19.7418 61.3401 19.7418H62.3901C62.5534 19.7418 62.6934 19.5696 62.6934 19.3687V4.64849L68.457 18.7374C68.5037 18.8522 68.5737 19.0244 68.6437 19.1679L68.6904 19.3113L68.807 19.5983C68.8304 19.6844 68.9004 19.7418 68.947 19.7418C69.017 19.7418 69.0637 19.6844 69.087 19.5983L69.2037 19.3113L69.4371 18.7374L75.2006 4.67719V19.3974C75.2006 19.5983 75.3406 19.7704 75.504 19.7704H76.554C76.7174 19.7704 76.8574 19.5983 76.8574 19.3974V0.71736C76.9274 0.659971 76.904 0.631279 76.904 0.602584ZM53.8731 0.0860797H52.823C52.6597 0.0860797 52.5197 0.258251 52.5197 0.459112V15.3802C52.5197 15.4663 52.4964 15.495 52.473 15.5237C52.4497 15.5237 52.4264 15.5237 52.3797 15.4663L39.2425 0.373024C39.1491 0.286941 39.0791 0.172163 38.9858 0.0860797C38.9391 0.0286909 38.7524 0 38.6358 0H38.6124C38.4491 0 38.3091 0.114778 38.3091 0.286944V19.3974C38.3091 19.5696 38.4491 19.6844 38.6124 19.6844H39.6625C39.8258 19.6844 39.9658 19.5409 39.9658 19.3974V4.33286C39.9658 4.27547 39.9892 4.21807 40.0125 4.21807C40.0358 4.21807 40.0825 4.21808 40.1058 4.27547L53.2431 19.34L53.4064 19.5122L53.4997 19.627C53.5464 19.6844 53.7331 19.7131 53.8497 19.7131H53.8731C54.0364 19.7131 54.1764 19.5983 54.1764 19.4261V0.430416C54.1764 0.25825 54.0364 0.0860797 53.8731 0.0860797ZM16.0482 0.114776C16.0248 0.0573871 15.9548 0 15.8615 0H14.6248C14.4848 0 14.3214 0.0573888 14.2748 0.143472C14.2281 0.286944 14.1581 0.430416 14.1114 0.573888L8.1145 15.208C8.09117 15.2654 8.06784 15.2941 8.02117 15.2941C7.99783 15.2941 7.95117 15.2654 7.95117 15.208L1.95425 0.573888C1.90758 0.430416 1.83758 0.286944 1.79091 0.143472C1.74424 0.0573888 1.5809 0 1.44089 0H0.204175C0.134173 0 0.0641693 0.0286927 0.0175007 0.114776C-0.00583358 0.172165 -0.00583358 0.258246 0.0175007 0.373024L0.0641695 0.4878C0.0875038 0.573883 0.134172 0.688662 0.180841 0.80344C0.22751 0.889523 0.250844 1.0043 0.297513 1.06169L7.53115 18.7088L7.76449 19.2826L7.88116 19.5696C7.92783 19.6557 7.9745 19.7131 8.02117 19.7131C8.06784 19.7131 8.13784 19.6557 8.16117 19.5696L8.27784 19.2826L8.39452 19.0244L8.51119 18.7088L15.7448 1.06169C15.8148 0.889522 15.9082 0.659966 15.9782 0.4878L16.0248 0.373024C16.0715 0.258246 16.0715 0.172165 16.0482 0.114776ZM110.925 0C115.359 0 118.952 4.41894 118.952 9.87088C118.952 12.396 118.159 14.8063 116.736 16.6428C115.336 18.4792 113.399 19.5696 111.369 19.7131H110.459C108.405 19.5696 106.492 18.4792 105.092 16.6428C103.668 14.8063 102.875 12.396 102.875 9.87088C102.875 7.23099 103.715 4.76327 105.232 2.89814C106.749 1.033 108.802 0 110.925 0ZM110.925 19.6844C111.089 19.6844 111.229 19.6844 111.392 19.6557H110.482C110.622 19.6844 110.785 19.6844 110.925 19.6844ZM115.359 15.3228C116.549 13.8881 117.202 11.9082 117.202 9.87088C117.202 7.83357 116.549 5.85366 115.359 4.41894C114.192 2.95552 112.582 2.15208 110.925 2.15208C109.245 2.15208 107.659 2.95552 106.469 4.41894C105.279 5.85366 104.625 7.83357 104.625 9.87088C104.625 11.9369 105.279 13.8594 106.469 15.3228C107.659 16.7862 109.245 17.5897 110.925 17.5897C112.606 17.5897 114.192 16.7575 115.359 15.3228ZM90.1579 0C94.5914 0 98.1849 4.41894 98.1849 9.87088C98.1849 12.396 97.3916 14.8063 95.9682 16.6428C94.5681 18.4792 92.6314 19.5696 90.6013 19.7131H89.6912C87.6378 19.5696 85.7244 18.4792 84.3243 16.6428C82.901 14.8063 82.1076 12.396 82.1076 9.87088C82.1076 7.23099 82.9476 4.76327 84.4643 2.89814C85.9811 1.033 88.0345 0 90.1579 0ZM90.1579 19.6844C90.3213 19.6844 90.4613 19.6844 90.6246 19.6557H89.7146C89.8546 19.6844 89.9946 19.6844 90.1579 19.6844ZM94.6381 15.3515C95.8282 13.9168 96.4815 11.9369 96.4815 9.87088C96.4815 7.80488 95.8282 5.85366 94.6381 4.39024C93.4481 2.92683 91.838 2.12338 90.1813 2.12338C88.5012 2.12338 86.8911 2.92683 85.7011 4.39024C84.511 5.82496 83.8577 7.80488 83.8577 9.87088C83.8577 11.9369 84.511 13.8881 85.7011 15.3515C86.8911 16.8149 88.5012 17.6184 90.1813 17.6184C91.838 17.6184 93.4481 16.7862 94.6381 15.3515Z"
            fill="#1F1F1F" />
    </g>
    <defs>
        <clipPath id="clip0_1_46">
            <rect width="140" height="20" fill="white" />
        </clipPath>
    </defs>
</svg>